<svg version="1.2" xmlns="http://www.w3.org/2000/svg" viewBox="0 0 52 126" width="52" height="126"><defs><clipPath clipPathUnits="userSpaceOnUse" id="cp1"><path d="m-326-397h624v901h-624z"/></clipPath></defs><style>.a{fill:#f2cdbf}.b{fill:#ebae8d}.c{fill:none;stroke:#4f3026;stroke-linecap:round;stroke-width:1.1}.d{fill:#4f3026}.e{fill:none;stroke:#e39f81;stroke-linecap:round;stroke-width:1.1}.f{fill:#6b6fe8}.g{fill:#e39f81}</style><g clip-path="url(#cp1)"><path class="a" d="m51.4 67.6c-0.3 4.1-1.8 5.7-2.4 6.7-0.5 0.9-1.3 0.6-1.4 0-0.4 0.7-1.4 0-1-0.9 0.5-0.9 0.7-3.8 0.3-3.9-0.3-0.1-0.2 0.4-0.5 1.3-0.3 0.9-1.3 0.5-1.2-0.4 0-0.9 0.3-2.9 0.7-4.3 0.6-2.2-3.5-16.8-5.3-21.2 0 0.7 1.2 4.6 1.5 7.1 0.7 4.5 1.7 9.2 2.2 19.6 0.2 2.9-0.1 10.9-0.8 20.9-0.8 11.6-4.7 22.8-4.8 25.3 0 1.8 4.3 4.7 4.7 5.4 0.1 0.2-0.1 0.4-0.4 0.4 0.2 0.3-0.2 0.5-0.5 0.4 0.2 0.2-0.3 0.5-0.6 0.3 0.2 0.4-0.4 0.7-0.9 0.3 0.4 0.7-1 0.9-2.1 0.5-2.3-0.8-5-2-6.2-2.8-1.4-1-1.6-1.9-1.7-3.9-0.2-3.8-2.4-20.2-2.8-25.6-0.4-4.5-1.9-13-2.2-18.4q0 0 0 0c-0.2 5.3-1.5 13.9-1.9 18.4-0.5 5.4-2.7 21.8-2.9 25.6-0.1 2-0.2 2.9-1.5 3.9-1.3 0.8-4 2.1-6.4 2.8-1 0.4-2.4 0.2-2.1-0.5-0.4 0.4-1 0.1-0.8-0.3-0.3 0.2-0.8-0.1-0.7-0.3-0.2 0.1-0.6-0.1-0.5-0.4-0.2 0-0.4-0.2-0.3-0.4 0.3-0.7 4.7-3.6 4.6-5.4 0-2.5-4.3-13.8-5.1-25.4-0.7-10.1-0.9-18.3-0.8-21.2 0.5-10.4 1.2-14.9 2.1-19.5 0.5-2.2 1.9-6.1 1.8-6.8-2.7 7.3-6.2 19-5.6 21.2 0.4 1.4 0.7 3.4 0.8 4.3 0.1 0.9-1 1.3-1.3 0.4-0.3-1-0.1-1.4-0.5-1.3-0.4 0.1-0.2 3 0.3 3.9 0.5 0.9-0.6 1.6-1 0.9 0 0.6-0.8 0.9-1.4 0-0.6-1-2.1-2.6-2.4-6.7-0.8-9.6 3.1-23.2 7-35.1 1-3.1 2.9-6.3 7.1-7.6 3-0.8 6.8-1.9 7.3-2.6 0.2-0.3 0.3-0.8 0.3-1.4q0-0.3 0.1-0.6 0-0.1 0-0.3c0-0.5-0.1-1-0.1-1.4-0.1-1 3.5-0.5 4-0.5 0.5 0 3.6-0.4 4 0.3q0.1 0.1 0 0.2 0 0.2 0 0.4 0 0 0 0.1 0 0 0 0c0 0.6 0 1.3 0.1 2q0 0.5 0.1 0.9 0.1 0.2 0.2 0.3 0 0 0.1 0.1 0 0 0 0.1 0.1 0 0.1 0c1.1 0.7 4.4 1.5 7 2.4 4.6 1.6 6.1 4.6 7.2 7.6 4.7 13.2 7.3 25.5 6.5 35.1z"/><path class="b" d="m30.7 22.5c-3.4 1.1-7.1 0.7-8.6-1.6q0 0 0 0c0 0-0.1-0.6-0.1-0.7 0-0.1 0.1-0.1 0.2-0.2 0.1-0.1 0.2-0.1 0.2-0.4q0 0 0-0.1c0.7-0.9 4.7 0 4.7 0 0 0 1.7-0.5 3-0.5q0 0 0 0.1 0 0 0 0c0 0.6 0 1.3 0.1 2q0 0.5 0.1 0.9 0.1 0.2 0.2 0.3 0 0 0.1 0.1 0 0 0 0.1 0.1 0 0.1 0z"/><path class="b" d="m30.2 18.5q0-0.1-0.1-0.1 0.1 0 0.1 0 0 0 0 0.1z"/><path class="a" d="m33.4 13.3c0.3 0.3-0.5 1.9-0.6 2.2-0.1 0.3 0 1.4-0.8 1.5 0 1.1 0 5.5-5.7 5.5-5.8 0-6-4.3-6.1-5.5-0.8-0.1-0.6-1.2-0.8-1.5-0.1-0.3-1-1.8-0.5-2.2 0.2-0.1 0.4 0 0.4 0 0 0-0.4-2.6 0.5-4.4 0.6-1.3 2.6-3.7 6.3-3.7 3.7 0 5.7 1.9 6.4 3.3 0.8 1.8 0.4 4.8 0.4 4.8 0 0 0.2-0.2 0.5 0z"/><path class="c" d="m26.6 13.2c-0.1 1.2 0.7 1.9 0.6 2.5 0 0.5-0.6 0.5-1 0.5"/><path class="c" d="m28.6 11.9c0.4-0.1 0.9 0 1.2 0.1"/><path class="c" d="m22.8 12.2c0.4-0.2 0.9-0.2 1.2-0.1"/><path  d="m23.6 12.9c0.6-0.2 1 1.3 0.2 1.4-0.7 0.2-1-1.2-0.2-1.4z"/><path  d="m29 12.9c0.7-0.1 0.8 1.4 0 1.4-0.8 0-0.7-1.4 0-1.4z"/><path class="d" d="m21.2 7c-0.4-2.6 6.1-4.5 10.1-1.5 0.9 0.7 1.4 2.2 2.4 0.9-0.4 2.7-4.4 5.2-11.8 2.5-0.1 1.2-1.2 2.9-1.6 3.5-0.4 0.5-0.9 1.4-1.3 0.5-1-2.2 0.1-5.8 2.2-5.9z"/><path class="d" d="m32.6 8c0.8 1.5 0.6 4 0.4 4.9-0.3 1-0.5 0.8-1.1-0.5-0.5-1.3-0.7-2.2-0.8-3.7-0.1-1.4 0.7-2.3 1.5-0.7z"/><path class="c" d="m21.9 8.8c1.1 1.1 5.2 1.7 7 1.6"/><path class="c" d="m21.3 7.1c-2.8-1.1-3.9 3.6-1.9 6.2"/><path class="c" d="m27.4 18.2c-0.4 0.5-1.3 0.4-1.6 0.1"/><path class="e" d="m47.6 74.4c0.5-0.9 1-1.9 1.2-3.7"/><path class="e" d="m4.1 74.3c-0.5-0.9-0.9-1.9-1.2-3.6"/><path class="f" d="m43.4 59.2c1.4 6.3 1.4 13.9 1.3 18.3 0 0.1-18.6 0-18.6 0l-0.1-1.5v1.5c0 0-18.6 0-18.8 0-0.1-4.1-0.1-12.5 1.2-18.2 6.6 8.9 28.5 9.1 35-0.1z"/><path class="g" d="m26.2 62.2c-0.2 0-0.4-0.1-0.4-0.3 0-0.2 0.2-0.4 0.4-0.4 0.2 0 0.4 0.2 0.4 0.4 0 0.2-0.2 0.3-0.4 0.3z"/></g></svg>