<svg version="1.2" xmlns="http://www.w3.org/2000/svg" viewBox="0 0 42 126" width="42" height="126"><defs><clipPath clipPathUnits="userSpaceOnUse" id="cp1"><path d="m-186-397h624v901h-624z"/></clipPath></defs><style>.a{fill:#f2cdbf}.b{fill:#ebae8d}.c{fill:none;stroke:#4f3026;stroke-linecap:round;stroke-width:1.1}.d{fill:#4f3026}.e{fill:none;stroke:#e39f81;stroke-linecap:round;stroke-width:1.1}.f{fill:#6b6fe8}.g{fill:#e39f81}</style><g clip-path="url(#cp1)"><path class="a" d="m41.8 67.2c-0.3 4.2-1.6 5.7-2.2 6.7-0.5 0.9-1.2 0.7-1.3 0.1-0.3 0.7-1.3-0.1-0.8-0.9 0.4-0.9 0.6-3.9 0.2-3.9-0.3-0.1-0.4 0.4-0.7 1.3-0.3 1-1.2 0.5-1.1-0.5 0.1-0.9 0.5-2.9 0.9-4.2 0.5-2.3-3.3-16.7-3.9-21.3 0 0.7-0.5 5 0 7.5 0.8 4 2 7.2 2.4 17.6 0.2 3-0.2 12.6-0.8 22.6-0.7 11.5-1.8 23.6-1.8 26.1-0.1 1.8 4.3 4.7 4.6 5.4 0.1 0.2-0.1 0.4-0.3 0.4 0.1 0.3-0.3 0.5-0.5 0.4 0.1 0.2-0.3 0.5-0.6 0.3 0.2 0.4-0.4 0.7-0.8 0.3 0.4 0.7-0.9 0.9-1.9 0.5-2.1-0.8-4.9-2-6-2.8-1.3-1-1.3-1.7-1.4-3.7-0.2-3.8-2-21.3-2.4-26.7-0.4-4.5-1.8-16.2-2-21.6 0 0.1-0.4 0.1-0.5 0-0.2 5.4-1.4 17.1-1.8 21.6-0.4 5.4-2.3 22.9-2.4 26.7-0.1 2-0.1 2.7-1.4 3.7-1.1 0.8-3.9 2.1-6 2.8-1 0.4-2.3 0.2-1.9-0.5-0.4 0.4-1 0.1-0.8-0.3-0.3 0.2-0.7-0.1-0.6-0.3-0.2 0.1-0.6-0.1-0.5-0.4-0.2 0-0.4-0.2-0.3-0.4 0.3-0.7 4.7-3.6 4.6-5.4 0-2.5-1.1-14.6-1.9-26.2-0.6-10.2-1-20-0.9-22.9 0.5-10.4 1.4-13.5 2.6-17.6 0.7-2.1-0.1-6.4-0.1-7.1-0.6 4.6-4.3 19-3.8 21.3 0.4 1.3 0.8 3.3 0.9 4.2 0.1 1-0.8 1.5-1.1 0.5-0.3-0.9-0.4-1.4-0.7-1.3-0.4 0-0.2 3 0.2 3.9 0.5 0.8-0.5 1.6-0.8 0.9-0.1 0.6-0.8 0.8-1.3-0.1-0.6-1-1.9-2.5-2.2-6.7-0.7-9.5 1.8-25.9 4.3-35.9 0.5-2.1 2.1-4.9 5.3-5.9 2.7-0.7 6.6-1.9 7-2.6 0.2-0.4 0.3-1.2 0.3-2 0.1-0.6 0-1.3 0-1.7-0.1-1 3.2-0.6 3.6-0.5 0.5 0 3.3-0.4 3.6 0.3q0.1 0.1 0.1 0.2 0 0.2 0 0.5 0 0 0 0c-0.1 0.6-0.1 1.3 0 1.9q0 0.6 0.2 1 0 0.2 0.1 0.3 0 0.1 0.1 0.2c0.9 0.6 4.4 1.7 6.9 2.4 3.2 1 4.8 3.8 5.3 5.9 2.6 9.8 5 26.4 4.3 35.9z"/><path class="b" d="m25.3 23c-3.2 0.9-6.3-0.4-7.6-2.2q0 0 0 0c0.1-0.3 0.4-0.2 0.4-0.5q0-0.1-0.1-0.1c0.6-0.9 4-0.1 4-0.1 0 0 1.7-0.5 2.9-0.5-0.1 0.6-0.1 1.3 0 1.9q0 0.6 0.2 1 0 0.2 0.1 0.3 0 0.1 0.1 0.2z"/><path class="b" d="m25 18.9q0 0 0 0 0 0 0 0 0 0 0 0z"/><path class="a" d="m27.8 13.8c0.3 0.3-0.4 1.9-0.5 2.2-0.1 0.3 0 1.4-0.7 1.5-0.2 0.8-0.8 4.8-5.1 4.8-4.5 0-5.4-3.9-5.6-4.8-0.7-0.1-0.6-1.2-0.7-1.5-0.1-0.3-0.9-1.8-0.5-2.2 0.2-0.1 0.4 0 0.4 0 0 0-0.4-2.6 0.4-4.4 0.6-1.3 2.4-3.7 5.7-3.7 3.3 0 5.2 1.9 5.8 3.3 0.7 1.8 0.4 4.8 0.4 4.8 0 0 0.2-0.2 0.4 0z"/><path class="c" d="m21.7 13.7c-0.1 1.2 0.6 1.9 0.6 2.5 0 0.5-0.6 0.5-1 0.5"/><path class="c" d="m23.6 12.4c0.4-0.1 0.9 0 1.2 0.1"/><path class="c" d="m18 12.7c0.3-0.2 0.8-0.2 1.2-0.1"/><path  d="m18.7 13.4c0.7-0.2 1 1.3 0.3 1.4-0.7 0.2-1-1.2-0.3-1.4z"/><path  d="m24.1 13.4c0.7-0.1 0.7 1.4-0.1 1.4-0.7 0-0.7-1.4 0.1-1.4z"/><path class="d" d="m16.8 7.5c-0.4-2.4 5.5-4.1 9.2-1.4 0.7 0.6 1.2 2 2.1 0.8-0.3 2.4-4 4.7-10.7 2.2 0 1.1-1.3 3.7-1.7 4.2-0.4 0.5-0.6 0.8-1 0-0.9-2 0.2-5.7 2.1-5.8z"/><path class="d" d="m27.1 8.3c0.7 1.4 0.7 4.4 0.4 5.2-0.2 0.8-0.5-0.1-1-1.2-0.5-1.2-0.7-2-0.8-3.3 0-1.3 0.7-2.1 1.4-0.7z"/><path class="c" d="m17.4 9.1c1 0.9 4.7 1.5 6.3 1.4"/><path class="c" d="m16.9 7.6c-2.6-1-3.6 3.8-1.8 6.1"/><path class="c" d="m22.5 18.7c-0.4 0.5-1.3 0.4-1.6 0.1"/><path class="e" d="m38.3 74c0.5-0.9 0.9-2 1.1-3.7"/><path class="e" d="m4.1 73.9c-0.4-0.8-0.9-1.9-1-3.6"/><path class="f" d="m34.3 57.4c1.1 4.5 1.2 10.8 1.2 15.6 0 0.1-14 0-14 0l-0.3-1.9-0.3 1.9c0 0-13.9 0-14 0-0.2-4.3 0.1-11.1 1.1-15.6 5.9 2.2 20.4 2.5 26.3 0z"/><path class="g" d="m21.6 56.3c0 0.2-0.2 0.3-0.4 0.3-0.2 0-0.3-0.1-0.3-0.3 0-0.2 0.1-0.4 0.3-0.4 0.2 0 0.4 0.2 0.4 0.4z"/></g></svg>