<svg version="1.2" xmlns="http://www.w3.org/2000/svg" viewBox="0 0 14 27" width="14" height="27"><defs><clipPath clipPathUnits="userSpaceOnUse" id="cp1"><path d="m-153-402h428v926h-428z"/></clipPath></defs><style>.a{fill:#fff}</style><g clip-path="url(#cp1)"><path fill-rule="evenodd" class="a" d="m13.3 20c0 3.6-2.9 6.4-6.5 6.4-3.5 0-6.4-2.8-6.4-6.4 0-2.6 1.5-4.8 3.6-5.8v-10.4c0-1.8 1.3-3.3 2.8-3.3 1.6 0 2.8 1.5 2.8 3.3v10.4c2.2 1 3.7 3.2 3.7 5.8zm-0.9 0c0-2.4-1.6-4.4-3.7-5.2v-0.1q0-0.1 0-0.2v-0.7-10c0-1.3-0.8-2.3-1.9-2.3-1 0-1.8 1-1.8 2.3v10 1c-2.2 0.8-3.7 2.8-3.7 5.2 0 3 2.5 5.5 5.5 5.5 3.1 0 5.6-2.5 5.6-5.5z"/><circle class="a" cx="6.8" cy="20" r="2.5"/></g></svg>