<svg version="1.2" xmlns="http://www.w3.org/2000/svg" viewBox="0 0 22 31" width="22" height="31"><defs><clipPath clipPathUnits="userSpaceOnUse" id="cp1"><path d="m-26-400h428v926h-428z"/></clipPath></defs><style>.a{fill:#fff}</style><g clip-path="url(#cp1)"><path fill-rule="evenodd" class="a" d="m10.9 30.2c-6 0-10.9-4.9-10.9-10.9 0-5.5 8.7-16.7 9.7-17.9 0.6-0.8 1.8-0.8 2.4 0 1 1.2 9.7 12.4 9.7 17.9 0 2.9-1.1 5.6-3.2 7.7-2.1 2.1-4.8 3.2-7.7 3.2zm0-28.5c-0.2 0-0.4 0.1-0.5 0.2-3.5 4.5-9.5 13.2-9.5 17.4 0 5.5 4.5 10 10 10 2.7 0 5.2-1.1 7-3 1.9-1.8 3-4.3 3-7 0-5.2-8.5-16.1-9.5-17.4q-0.2-0.2-0.5-0.2z"/></g></svg>