<svg version="1.2" xmlns="http://www.w3.org/2000/svg" viewBox="0 0 38 128" width="38" height="128"><defs><clipPath clipPathUnits="userSpaceOnUse" id="cp1"><path d="m-116-395h624v901h-624z"/></clipPath></defs><style>.a{fill:#f2cdbf}.b{fill:#ebae8d}.c{fill:none;stroke:#4f3026;stroke-linecap:round;stroke-width:1.1}.d{fill:#4f3026}.e{fill:none;stroke:#e39f81;stroke-linecap:round;stroke-width:1.1}.f{fill:#6b6fe8}.g{fill:#e39f81}</style><g clip-path="url(#cp1)"><path class="a" d="m37 69.2c-0.3 4.2-1.4 5.7-1.9 6.7-0.5 0.9-1.1 0.7-1.2 0.1-0.3 0.7-1.2-0.1-0.8-0.9 0.4-0.9 0.5-3.9 0.2-3.9-0.3-0.1-0.4 0.4-0.7 1.3-0.3 1-1.2 0.5-1.1-0.5 0.1-0.9 0.6-2.9 0.9-4.2 0.6-2.3-2.6-20.4-3.1-24.9-0.1 0.6-0.6 8.6-0.1 11.1 0.8 4 1.5 5 1.9 15.4 0.3 6.3-1.9 46.2-2.1 50.9 0 1.8 5 4.7 5.3 5.4 0.1 0.2 0 0.4-0.2 0.4 0.1 0.3-0.3 0.5-0.5 0.4 0.1 0.2-0.2 0.5-0.5 0.3 0.1 0.4-0.4 0.7-0.8 0.3 0.4 0.7-0.9 0.9-1.8 0.5-2-0.8-4.6-2-5.7-2.8-1.2-1-0.9-1.4-1-3.4-0.2-3.8-1.8-21.6-2.2-27-0.3-4.5-1.7-17.1-1.9-22.4-0.3 0.1-1.3 0.1-1.6 0-0.2 5.3-1.6 17.9-1.9 22.4-0.4 5.4-2 23.2-2.2 27-0.1 2 0.2 2.4-1 3.4-1.1 0.8-3.7 2.1-5.7 2.8-0.9 0.4-2.1 0.2-1.8-0.5-0.4 0.4-0.9 0.1-0.8-0.3-0.2 0.2-0.6-0.1-0.5-0.3-0.2 0.1-0.6-0.1-0.4-0.4-0.3 0-0.4-0.2-0.3-0.4 0.3-0.7 5.3-3.6 5.3-5.4-0.2-4.7-2.4-44.6-2.2-50.9 0.5-10.4 0.9-11.7 2.1-15.8 0.6-2.1-0.1-10.1-0.2-10.7-0.5 4.5-3.6 22.6-3.1 24.9 0.3 1.3 0.8 3.3 0.9 4.2 0.1 1-0.8 1.5-1.1 0.5-0.2-0.9-0.4-1.4-0.7-1.3-0.3 0-0.2 3 0.2 3.9 0.4 0.8-0.4 1.6-0.8 0.9 0 0.6-0.7 0.8-1.2-0.1-0.5-1-1.6-2.5-1.9-6.7-0.7-9.5 1.2-27.9 2.7-36.6 0.4-2.1 2-4.2 5-5.2 2.6-0.7 6.3-1.9 6.7-2.6 0.4-0.7 0.3-2.7 0.3-3.7-0.1-1 3-0.6 3.4-0.5 0.4 0 3-0.4 3.4 0.3q0.1 0.1 0 0.2c0 0.6 0 1.6 0.1 2.4 0 0.6 0.1 1 0.2 1.3 0.4 0.7 4.1 1.9 6.7 2.6 3 1 4.6 3.1 5 5.2 1.5 8.7 3.4 27.1 2.7 36.6z"/><path class="b" d="m22.4 23.5c-2.8 0.9-5.2 0.2-6.3-1.3 0-0.3 0.1-0.5 0.1-0.9q0 0-0.1 0c0.5-0.8 3.3-0.1 3.3-0.1h0.1c0 0 1.9-0.6 2.8-0.3q0.1 0.1 0 0.2c0 0.6 0 1.6 0.1 2.4z"/><path class="a" d="m24.8 15.8c0.3 0.3-0.4 1.9-0.5 2.2-0.1 0.3 0 1.4-0.6 1.5-0.2 0.8-1.3 3.8-4.6 3.8-3.3 0-4.8-2.9-5-3.8-0.7-0.1-0.5-1.2-0.6-1.5-0.1-0.3-0.8-1.8-0.5-2.2 0.2-0.1 0.4 0 0.4 0 0 0-0.4-2.6 0.3-4.4 0.6-1.3 2.2-3.7 5.2-3.7 3 0 4.6 1.9 5.2 3.3 0.6 1.8 0.3 4.8 0.3 4.8 0 0 0.2-0.2 0.4 0z"/><path class="c" d="m19.3 15.7c0 1.2 0.6 1.9 0.6 2.5-0.1 0.5-0.6 0.5-0.9 0.5"/><path class="c" d="m21 14.4c0.4-0.1 0.9 0 1.1 0.1"/><path class="c" d="m16 14.7c0.3-0.2 0.8-0.2 1-0.1"/><path  d="m16.6 15.4c0.6-0.2 1 1.3 0.3 1.4-0.7 0.2-0.9-1.2-0.3-1.4z"/><path  d="m21.4 15.4c0.7-0.1 0.7 1.4 0 1.4-0.7 0-0.6-1.4 0-1.4z"/><path class="d" d="m14.9 9.5c-0.3-2.4 5-4.1 8.2-1.4 0.7 0.6 1.1 2 2 0.8-0.3 2.4-3.6 4.7-9.6 2.2-0.1 1.1-1.2 3.7-1.6 4.2-0.3 0.5-0.5 0.8-0.8 0-0.9-2 0.1-5.7 1.8-5.8z"/><path class="d" d="m24.2 10.3c0.6 1.4 0.6 4.4 0.4 5.2-0.2 0.8-0.5-0.1-1-1.2-0.4-1.2-0.6-2-0.7-3.3 0-1.3 0.6-2.1 1.3-0.7z"/><path class="c" d="m15.4 11.1c1 0.9 4.3 1.5 5.7 1.4"/><path class="c" d="m15 9.6c-2.3-1-3.3 3.8-1.7 6.1"/><path class="c" d="m20 20.7c-0.3 0.5-1.2 0.4-1.4 0.1"/><path class="e" d="m3.9 76c-0.5-0.9-0.9-2-1-3.7"/><path class="f" d="m30.4 59.4c0.7 3.7 1.1 10.1 0.8 14.4 0 0.1-11.6 0-11.6 0l-0.1-1.6-1.3-0.1-0.1 1.7c0 0-11.5 0.1-11.6 0-0.2-4 0.1-10.3 0.8-14.5 4.8 1.1 17.5 1.3 23.1 0.1z"/><path class="g" d="m18.9 58.2c-0.2 0-0.4-0.2-0.4-0.4 0-0.2 0.2-0.4 0.4-0.4 0.2 0 0.3 0.2 0.3 0.4 0 0.2-0.1 0.4-0.3 0.4z"/></g></svg>