<svg version="1.2" xmlns="http://www.w3.org/2000/svg" viewBox="0 0 27 23" width="27" height="23"><defs><clipPath clipPathUnits="userSpaceOnUse" id="cp1"><path d="m-298-404h428v926h-428z"/></clipPath></defs><style>.a{fill:#fff}</style><g clip-path="url(#cp1)"><path class="a" d="m17.3 4.2c0 2.4-1.9 4.3-4.2 4.3h-11.8c-0.2 0-0.4-0.2-0.4-0.5 0-0.3 0.2-0.5 0.4-0.5h11.7q0.1 0 0.1 0c1.8 0 3.2-1.4 3.2-3.3 0-1.8-1.4-3.2-3.2-3.2-1.8 0-3.3 1.4-3.3 3.2h-0.9c0-2.3 1.8-4.2 4.2-4.2 2.3 0 4.2 1.9 4.2 4.2z"/><path class="a" d="m19.4 22.2c-2.4 0-4.2-1.9-4.2-4.2h0.9c0 1.8 1.5 3.3 3.3 3.3 1.8 0 3.2-1.5 3.2-3.3 0-1.8-1.4-3.3-3.2-3.3q0 0-0.1 0h-18c-0.2 0-0.4-0.2-0.4-0.5 0-0.2 0.2-0.4 0.4-0.4h18.1c2.3 0 4.2 1.9 4.2 4.2 0 2.3-1.9 4.2-4.2 4.2z"/><path class="a" d="m26.6 7.5c0 2.4-1.9 4.2-4.2 4.2h-21.1c-0.2 0-0.4-0.2-0.4-0.4 0-0.3 0.2-0.5 0.4-0.5h21q0 0 0.1 0c1.8 0 3.2-1.5 3.2-3.3 0-1.8-1.4-3.2-3.2-3.2-1.8 0-3.3 1.4-3.3 3.2h-1c0-2.3 1.9-4.2 4.3-4.2 2.3 0 4.2 1.9 4.2 4.2z"/></g></svg>