<svg version="1.2" xmlns="http://www.w3.org/2000/svg" viewBox="0 0 34 128" width="34" height="128"><defs><clipPath clipPathUnits="userSpaceOnUse" id="cp1"><path d="m-46-395h624v901h-624z"/></clipPath></defs><style>.a{fill:#f2cdbf}.b{fill:#ebae8d}.c{fill:none;stroke:#4f3026;stroke-linecap:round;stroke-width:1.1}.d{fill:#4f3026}.e{fill:none;stroke:#e39f81;stroke-linecap:round;stroke-width:1.1}.f{fill:#6b6fe8}.g{fill:#e39f81}</style><g clip-path="url(#cp1)"><path class="a" d="m32.8 69.2c-0.2 4.2-1.2 5.7-1.7 6.7-0.4 0.9-1 0.7-1.1 0.1-0.3 0.7-1.1-0.1-0.7-0.9 0.4-0.9 0.5-3.9 0.2-3.9-0.3-0.1-0.5 0.5-0.7 1.2-0.2 0.9-1 0.6-0.9-0.4 0-0.9 0.8-2.9 1.1-4.2 0.4-2.3-2.4-22.8-3.3-27.5 0 0.7-1.5 9-1.5 11.2 0 3.5 2.3 7.5 2.7 17.9 0.2 6.3-1.4 46.2-1.6 50.9 0 1.8 4.8 4.7 5.1 5.4 0.1 0.2 0 0.4-0.2 0.4 0.1 0.3-0.2 0.5-0.4 0.4 0.1 0.2-0.3 0.5-0.5 0.3 0.1 0.4-0.4 0.7-0.7 0.3 0.3 0.7-0.8 0.9-1.6 0.5-1.8-0.8-4.2-2-5.1-2.8-1.1-1-0.9-1.4-1-3.4-0.1-3.8-1.4-21.6-1.7-27-0.3-4.5-1.8-18-1.9-23.3-0.3 0.1-1.2 0.1-1.4 0-0.2 5.3-1.6 18.8-1.9 23.3-0.4 5.4-1.6 23.2-1.8 27-0.1 2 0.1 2.4-0.9 3.4-1 0.8-3.4 2.1-5.2 2.8-0.8 0.4-1.9 0.2-1.6-0.5-0.3 0.4-0.8 0.1-0.7-0.3-0.2 0.2-0.6-0.1-0.5-0.3-0.1 0.1-0.5-0.1-0.3-0.4-0.2 0-0.4-0.2-0.3-0.4 0.3-0.7 5.1-3.6 5.1-5.4-0.1-4.7-1.8-44.6-1.6-50.9 0.4-10.4 2.6-14.4 2.6-17.9 0-2.2-1.3-10.5-1.4-11.2-0.9 5.1-3.7 25.2-3.2 27.5 0.3 1.3 1 3.3 1.1 4.2 0 1-0.8 1.3-1 0.4-0.2-0.8-0.4-1.3-0.7-1.2-0.3 0-0.1 3 0.2 3.9 0.4 0.8-0.4 1.6-0.7 0.9 0 0.6-0.6 0.8-1.1-0.1-0.4-1-1.4-2.5-1.7-6.7-0.6-9.5 1.1-27.9 2.5-36.6 0.3-2.1 1.8-4.2 4.5-5.2 2.3-0.7 5.8-1.9 6.2-2.6 0.2-0.5 0.3-1.7 0.2-2.7q0-0.6 0-1c0-1 2.5-0.6 2.9-0.5 0.4-0.1 2.9-0.5 2.8 0.5q0 0.2 0 0.3c0 0.7 0 1.5 0 2.2 0.1 0.5 0.1 0.9 0.3 1.2 0.3 0.7 3.9 1.9 6.2 2.6 2.7 1 4.1 3.1 4.4 5.2 1.4 8.7 3.1 27.1 2.5 36.6z"/><path class="b" d="m19.4 23.6c-2.4 0.8-4.6-0.1-5.6-1.5 0-0.2 0.1-0.1 0.1-0.4q0 0 0-0.1c0.4-0.6 2.8 0 2.8 0 0 0 2.1-0.7 2.7-0.2 0 0.7 0 1.5 0 2.2z"/><path class="a" d="m22 16.3c0.2 0.3-0.4 1.9-0.5 2.2-0.1 0.2 0 1.3-0.5 1.4-0.2 0.9-1.8 3.4-4.3 3.4-2.2 0-4.3-2.3-4.5-3.4-0.6-0.1-0.5-1.2-0.6-1.4-0.1-0.3-0.7-1.8-0.4-2.2 0.2-0.2 0.3 0 0.3 0 0 0-0.3-2.5 0.3-4.3 0.5-1.3 2-3.6 4.8-3.6 2.7 0 4.2 1.8 4.7 3.2 0.6 1.7 0.3 4.7 0.3 4.7 0 0 0.2-0.2 0.4 0z"/><path class="c" d="m16.9 16.2c0 1.1 0.6 1.9 0.6 2.4-0.1 0.5-0.6 0.5-0.8 0.5"/><path class="c" d="m18.5 14.9c0.4-0.1 0.8 0 1 0.1"/><path class="c" d="m13.9 15.2c0.3-0.2 0.7-0.2 1-0.1"/><path  d="m14.5 16c0.5-0.1 0.8 1.2 0.2 1.3-0.6 0.1-0.8-1.1-0.2-1.3z"/><path  d="m18.9 16c0.6-0.1 0.6 1.3 0 1.3-0.7 0-0.6-1.2 0-1.3z"/><path class="d" d="m12.9 10.5c-0.3-1.5 4.5-3.5 7.5-1.1 0.6 0.6 1.1 1.6 1.8 0.6-0.3 2.2-3.3 4.3-8.7 2-0.1 1-1.2 3.4-1.5 3.9-0.3 0.4-0.4 0.7-0.8 0-0.7-1.9 0.2-5.3 1.7-5.4z"/><path class="d" d="m21.4 10.9c0.6 1.3 0.5 4.3 0.3 5.1-0.1 0.8-0.4-0.1-0.8-1.2-0.4-1.1-0.6-1.9-0.6-3.2-0.1-1.3 0.5-2 1.1-0.7z"/><path class="c" d="m13.4 11.7c1 1.2 3.9 1.8 5.2 1.7"/><path class="c" d="m13 10.5c-2.1-0.9-3 3.5-1.5 5.7"/><path class="c" d="m17.6 21.1c-0.6 0.5-1.1 0.3-1.4-0.1"/><path class="e" d="m30.1 76c0.4-0.9 0.8-2 1-3.7"/><path class="e" d="m3.1 75.9c-0.5-0.8-0.9-1.9-1.1-3.6"/><path class="f" d="m26 58.9c0.9 3.5 1.3 9.7 1.1 14 0 0.1-9.9 0-9.9 0l-0.1-1.6-1.1-0.1-0.1 1.7c0 0-9.8 0.1-9.9 0-0.1-4 0.1-10 1.1-14 4.3 1.1 14 1.2 18.9 0z"/><path class="g" d="m16.7 57.9c-0.2 0-0.4-0.1-0.4-0.3 0-0.2 0.2-0.4 0.4-0.4 0.2 0 0.3 0.2 0.3 0.4 0 0.2-0.1 0.3-0.3 0.3z"/></g></svg>