<svg version="1.2" xmlns="http://www.w3.org/2000/svg" viewBox="0 0 55 55" width="55" height="55"><defs><clipPath clipPathUnits="userSpaceOnUse" id="cp1"><path d="m-349-54h428v926h-428z"/></clipPath></defs><style>.a{fill:#fff}</style><g clip-path="url(#cp1)"><path fill-rule="evenodd" class="a" d="m28.3 54.6c-15.6 0-28.3-12.7-28.3-28.3 0-11.5 6.8-21.7 17.4-26.2 0.7-0.2 1.5-0.1 2 0.4 0.6 0.5 0.7 1.3 0.5 2-1.1 2.8-1.6 5.7-1.6 8.6 0 13.6 11 24.6 24.6 24.6 3.3 0 6.5-0.6 9.5-1.9 0.7-0.3 1.5-0.2 2 0.4 0.6 0.5 0.7 1.3 0.5 2-4.1 11-14.8 18.4-26.6 18.4zm-13.2-49c-7 4.4-11.3 12.2-11.3 20.7 0 13.6 11 24.6 24.5 24.6 8.8 0 16.9-4.8 21.3-12.2q-3.3 0.7-6.7 0.7c-15.6 0-28.3-12.7-28.3-28.3q0-2.8 0.5-5.5z"/></g></svg>