<svg version="1.2" xmlns="http://www.w3.org/2000/svg" viewBox="0 0 428 219" width="428" height="219"><defs><clipPath clipPathUnits="userSpaceOnUse" id="cp1"><path d="m0-237h428v926h-428z"/></clipPath><linearGradient id="P" gradientUnits="userSpaceOnUse"/><linearGradient id="g1" x1="214" y1="225.3" x2="214" y2="89.4" href="#P"><stop stop-color="#008e94"/><stop offset="1" stop-color="#00bf77"/></linearGradient></defs><style>.a{fill:url(#g1)}</style><g clip-path="url(#cp1)"><path class="a" d="m0.1 218.1q-0.1-0.3-0.1-0.3c-0.4-1.9 26.5-12.8 28.4-13.7 25.7-11.1 52.5-20.2 79.9-26 26.2-5.5 53.2-8.5 78.3-18.3 14.3-5.6 27.8-13.2 40-22.3 22.3-16.7 41.5-36.8 61.5-56.1 7.1-6.9 14.4-13.6 21.9-20.1 29.3-25.2 61.6-47.5 98.6-59.7q9.7-0.8 19.4-1v217.5z"/></g></svg>