<svg version="1.2" xmlns="http://www.w3.org/2000/svg" viewBox="0 0 56 56" width="56" height="56"><defs><clipPath clipPathUnits="userSpaceOnUse" id="cp1"><path d="m-351-56h428v926h-428z"/></clipPath></defs><style>.a{fill:#fff}</style><g clip-path="url(#cp1)"><path fill-rule="evenodd" class="a" d="m27.5 42.4c-8.2 0-14.9-6.7-14.9-14.9 0-8.2 6.7-14.9 14.9-14.9 8.2 0 14.9 6.7 14.9 14.9 0 8.2-6.7 14.9-14.9 14.9zm0-27.1c-6.7 0-12.2 5.5-12.2 12.2 0 6.7 5.5 12.2 12.2 12.2 6.7 0 12.2-5.5 12.2-12.2 0-6.7-5.5-12.2-12.2-12.2z"/><path class="a" d="m27.5 9.3c-0.8 0-1.4-0.6-1.4-1.3v-6.6c0-0.8 0.6-1.4 1.4-1.4 0.7 0 1.4 0.6 1.4 1.4v6.6c0 0.7-0.7 1.3-1.4 1.3z"/><path class="a" d="m41.4 15.1c-0.4 0-0.7-0.1-1-0.4-0.5-0.5-0.5-1.4 0-1.9l4.7-4.7c0.5-0.5 1.4-0.5 1.9 0 0.6 0.6 0.6 1.4 0 2l-4.7 4.6c-0.2 0.3-0.6 0.4-0.9 0.4z"/><path class="a" d="m53.6 29.1l-6.6-0.1c-0.7 0-1.3-0.6-1.3-1.3 0-0.8 0.6-1.4 1.3-1.4l6.7 0.1c0.7 0 1.3 0.6 1.3 1.3 0 0.8-0.6 1.4-1.4 1.4z"/><path class="a" d="m45.8 47.6c-0.4 0-0.8-0.2-1-0.4l-4.6-4.8c-0.6-0.5-0.5-1.4 0-1.9 0.5-0.5 1.4-0.5 1.9 0l4.6 4.8c0.5 0.5 0.5 1.4 0 1.9-0.3 0.3-0.6 0.4-0.9 0.4z"/><rect class="a" x="25.7" y="45.7" width="2.8" height="9.3" rx="1.3"></rect><path class="a" d="m8.6 47c-0.3 0-0.7-0.2-1-0.5-0.5-0.5-0.5-1.4 0.1-1.9l4.8-4.6c0.5-0.5 1.4-0.5 1.9 0.1 0.5 0.5 0.5 1.4-0.1 1.9l-4.7 4.6c-0.3 0.2-0.6 0.4-1 0.4z"/><path class="a" d="m8 28.4q-0.1 0-0.1 0l-6.6-0.2c-0.7 0-1.3-0.6-1.3-1.4 0-0.7 0.6-1.3 1.4-1.3l6.6 0.2c0.7 0 1.3 0.6 1.3 1.3 0 0.8-0.6 1.4-1.3 1.4z"/><path class="a" d="m14.1 14.6c-0.4 0-0.7-0.1-1-0.4l-4.5-4.8c-0.5-0.5-0.5-1.4 0-1.9 0.6-0.5 1.4-0.5 1.9 0l4.6 4.9c0.5 0.5 0.5 1.4-0.1 1.9-0.2 0.2-0.6 0.3-0.9 0.3z"/></g></svg>